<svg xmlns="http://www.w3.org/2000/svg" version="1.1" xmlns:xlink="http://www.w3.org/1999/xlink" xmlns:svgjs="http://svgjs.dev/svgjs" width="1000" height="1000"><g clip-path="url(#SvgjsClipPath1010)"><rect width="1000" height="1000" fill="#ffffff"></rect><g transform="matrix(8.641975308641975,0,0,8.641975308641975,240.74074074074076,150)"><svg xmlns="http://www.w3.org/2000/svg" version="1.1" xmlns:xlink="http://www.w3.org/1999/xlink" xmlns:svgjs="http://svgjs.dev/svgjs" width="60" height="81"><svg width="60" height="81" viewBox="0 0 60 81" fill="none" xmlns="http://www.w3.org/2000/svg">
<path d="M54.8773 34.5062L54.8771 34.5064L47.7389 37.3719C50.5781 41.1402 52.4814 45.5156 52.4814 51.0901C52.4814 63.4491 42.3963 73.5038 30 73.5038C17.6037 73.5038 7.51856 63.4491 7.51856 51.0901C7.51856 43.6287 11.9518 37.9901 18.8339 31.6461L25.112 37.114C20.1215 41.6327 17.2439 46.2124 17.2439 51.588C17.2439 58.6008 22.9662 64.3061 30 64.3061C37.0338 64.3061 42.7561 58.6008 42.7561 51.588C42.7561 45.4976 38.9281 40.5414 35.58 37.372C41.0071 32.3217 49.0036 24.7836 49.0036 13.2161C49.0036 9.90721 48.4539 6.72585 47.4542 3.74809H39.3741C40.7254 6.62636 41.4851 9.8337 41.4851 13.2161C41.4851 20.6775 37.0518 26.3162 30.1697 32.6601L23.8916 27.1922C28.8821 22.6735 31.7597 18.0937 31.7597 12.7182C31.7597 5.70533 26.0374 0 19.0036 0C11.9699 0 6.24752 5.70533 6.24752 12.7182C6.24752 18.8086 10.0755 23.7648 13.4236 26.9341C7.99653 31.9845 0 39.5226 0 51.0901C0 67.5825 13.4579 81 30 81C46.5421 81 60 67.5825 60 51.0901C60 44.2649 57.7977 38.8424 54.8773 34.5062ZM30 41.3711C31.9643 43.1244 36.1621 47.4164 36.1621 52.0531C36.1621 55.4409 33.398 58.1968 30 58.1968C26.602 58.1968 23.8379 55.4409 23.8379 52.0531C23.8379 47.4164 28.0357 43.1244 30 41.3711ZM12.8416 12.253C12.8416 8.86521 15.6056 6.10935 19.0036 6.10935C22.4016 6.10935 25.1657 8.86521 25.1657 12.253C25.1657 16.8898 20.9679 21.1818 19.0036 22.9351C17.0393 21.1818 12.8416 16.8898 12.8416 12.253Z" fill="#1E383E"></path>
</svg></svg></g></g><defs><clipPath id="SvgjsClipPath1010"><rect width="1000" height="1000" x="0" y="0" rx="350" ry="350"></rect></clipPath></defs></svg>