<?xml version="1.0" encoding="UTF-8"?> <svg xmlns="http://www.w3.org/2000/svg" width="197" height="24" viewBox="0 0 197 24" fill="none"><path d="M104.047 10.2254L101.943 11.0738C102.78 12.191 103.341 13.4859 103.341 15.1383C103.341 18.8008 100.369 21.7801 96.7154 21.7801C93.062 21.7801 90.0901 18.8008 90.0901 15.1383C90.0901 12.9285 91.3965 11.2563 93.4261 9.37696L95.2762 10.9973C93.805 12.3366 92.9562 13.693 92.9562 15.2863C92.9562 17.3654 94.6439 19.0548 96.7154 19.0548C98.7869 19.0548 100.475 17.3629 100.475 15.2863C100.475 13.4809 99.3454 12.0135 98.3588 11.0738C99.958 9.57673 102.315 7.34225 102.315 3.91652C102.315 2.93493 102.152 1.99279 101.857 1.10985H99.4757C99.8743 1.96319 100.098 2.91273 100.098 3.91652C100.098 6.12635 98.7918 7.79852 96.7622 9.67785L94.9121 8.05748C96.3833 6.71827 97.2321 5.36179 97.2321 3.76854C97.2321 1.68943 95.5443 0 93.4729 0C91.4014 0 89.7137 1.6919 89.7137 3.76854C89.7137 5.57389 90.8429 7.04135 91.8295 7.98102C90.2303 9.47808 87.8735 11.7126 87.8735 15.1383C87.8735 20.0265 91.8393 24.0023 96.7154 24.0023C101.592 24.0023 105.557 20.0265 105.557 15.1383C105.557 13.1159 104.908 11.5079 104.047 10.2229V10.2254ZM96.713 12.2601C97.2911 12.7805 98.5286 14.0506 98.5286 15.4244C98.5286 16.4282 97.7143 17.2445 96.713 17.2445C95.7117 17.2445 94.8973 16.4282 94.8973 15.4244C94.8973 14.0506 96.1348 12.778 96.713 12.2601ZM91.6572 3.63043C91.6572 2.62663 92.4716 1.81028 93.4729 1.81028C94.4742 1.81028 95.2885 2.62663 95.2885 3.63043C95.2885 5.00417 94.051 6.27679 93.4729 6.79472C92.8947 6.27433 91.6572 5.00417 91.6572 3.63043Z" fill="#1E383E"></path><path d="M10.419 0.483399C3.15398 0.483399 0 6.31132 0 12.0455C0 17.7797 3.15398 23.4202 10.419 23.4202C17.6839 23.4202 20.7444 17.7477 20.7444 12.0455C20.7444 6.34338 17.6224 0.483399 10.419 0.483399ZM10.419 20.9095C5.28697 20.9095 3.06049 16.4775 3.06049 12.0455C3.06049 7.61354 5.28697 2.99412 10.419 2.99412C15.5509 2.99412 17.6839 7.54942 17.6839 12.0455C17.6839 16.5416 15.4894 20.9095 10.419 20.9095Z" fill="#1E383E"></path><path d="M32.5238 15.0816C32.5238 17.7156 32.3689 18.6775 31.5349 19.6985C30.8239 20.5667 30.0514 21.0624 28.7843 21.0624C27.3624 21.0624 26.5283 20.4113 26.1864 19.8835C25.6919 19.2028 25.5689 18.3642 25.5689 16.258V7.97856H22.8184V16.258C22.8184 18.8304 22.9414 20.0093 23.9009 21.309C24.9514 22.7346 26.5603 23.2624 28.0118 23.2624C30.6098 23.2624 32.2163 21.6815 32.5558 20.473V22.8899H35.2448V7.97856H32.5238V15.0816Z" fill="#1E383E"></path><path d="M62.3169 7.58148C57.8344 7.58148 55.4849 11.3624 55.4849 15.454C55.4849 19.5456 57.6499 23.2648 62.6564 23.2648C66.1819 23.2648 68.4698 20.5371 68.9004 18.4925L66.2729 17.9351C65.9629 19.3606 64.8804 21.1265 62.5309 21.1265C59.5319 21.1265 58.2945 18.5542 58.2649 16.1051H69.0849C69.1144 15.9818 69.1144 15.7327 69.1144 15.5156C69.1144 10.9899 66.6419 7.58148 62.312 7.58148H62.3169ZM58.2969 13.9668C58.2969 11.641 59.7509 9.71978 62.3169 9.71978C64.8829 9.71978 66.2434 11.9518 66.2434 13.9668H58.2969Z" fill="#1E383E"></path><path d="M82.6947 9.53481C81.6442 8.10927 80.0352 7.58148 78.5837 7.58148C75.9858 7.58148 74.2858 9.16239 73.9463 10.3709V7.98102H71.2573V22.8924H74.0078V15.7647C74.0078 13.3477 74.1628 12.1688 74.9672 11.1478C75.6462 10.2796 76.5442 9.78391 77.8112 9.78391C79.2037 9.78391 80.0672 10.435 80.4092 10.9603C80.9037 11.641 81.0267 12.4796 81.0267 14.5858V22.8924H83.7477V14.5858C83.7477 12.0135 83.6542 10.8346 82.6972 9.53481H82.6947Z" fill="#1E383E"></path><path d="M51.3001 4.01271V1.10985L48.5496 2.21969V7.98102H42.4778V1.10985L39.7273 2.21969V7.97856H36.8513V10.1785H39.7273V19.5727C39.7273 21.9897 41.1813 23.107 43.4988 23.107C44.4263 23.107 45.1988 22.9516 45.6318 22.8579V20.6579C45.1668 20.7516 44.6108 20.8133 44.1483 20.8133C43.0658 20.8133 42.4778 20.3496 42.4778 18.9216V10.1785H48.5496V19.5727C48.5496 21.9897 50.0036 23.107 52.3211 23.107C53.2486 23.107 54.0211 22.9516 54.4541 22.8579V20.6579C53.9891 20.7516 53.4331 20.8133 52.9706 20.8133C51.8881 20.8133 51.3001 20.3496 51.3001 18.9216V10.1785H54.4541V7.97856H51.3001V4.01024V4.01271Z" fill="#1E383E"></path><path d="M137.971 7.58148C133.301 7.58148 130.767 11.6115 130.767 15.454C130.767 19.2965 133.301 23.2648 137.971 23.2648C142.64 23.2648 145.142 19.2669 145.142 15.454C145.142 11.641 142.608 7.58148 137.971 7.58148ZM137.971 21.0649C134.972 21.0649 133.55 18.1521 133.55 15.454C133.55 12.7558 134.972 9.78144 137.971 9.78144C140.969 9.78144 142.33 12.7558 142.33 15.454C142.33 18.1521 140.938 21.0649 137.971 21.0649Z" fill="#1E383E"></path><path d="M175.388 7.58148C170.905 7.58148 168.556 11.3624 168.556 15.454C168.556 19.5456 170.721 23.2648 175.727 23.2648C179.253 23.2648 181.541 20.5371 181.971 18.4925L179.344 17.9351C179.034 19.3606 177.951 21.1265 175.602 21.1265C172.603 21.1265 171.365 18.5542 171.336 16.1051H182.156C182.185 15.9818 182.185 15.7327 182.185 15.5156C182.185 10.9899 179.713 7.58148 175.383 7.58148H175.388ZM171.368 13.9668C171.368 11.641 172.822 9.71978 175.388 9.71978C177.954 9.71978 179.314 11.9518 179.314 13.9668H171.368Z" fill="#1E383E"></path><path d="M195.766 9.53481C194.715 8.10927 193.106 7.58148 191.655 7.58148C189.057 7.58148 187.357 9.16239 187.017 10.3709V7.98102H184.328V22.8924H187.079V15.7647C187.079 13.3477 187.234 12.1688 188.038 11.1478C188.717 10.2796 189.615 9.78391 190.882 9.78391C192.275 9.78391 193.138 10.435 193.48 10.9603C193.975 11.641 194.098 12.4796 194.098 14.5858V22.8924H196.819V14.5858C196.819 12.0135 196.725 10.8346 195.768 9.53481H195.766Z" fill="#1E383E"></path><path d="M147.275 22.8924H150.028V0L147.275 1.10985V22.8924Z" fill="#1E383E"></path><path d="M118.842 13.4711H125.8C125.677 19.1115 122.183 20.9095 119.246 20.9095C114.36 20.9095 111.919 16.7562 111.919 11.9518C111.919 7.14741 114.579 2.99412 119.246 2.99412C122.277 2.99412 124.255 4.82166 125.276 7.17947L128.041 6.06222C126.57 2.856 123.613 0.483399 119.246 0.483399C112.66 0.483399 108.859 5.84519 108.859 11.9518C108.859 18.0584 112.507 23.4202 119.123 23.4202C122.648 23.4202 124.688 21.8097 125.864 19.7331V22.8949H128.646V11.0763H118.845V13.4711H118.842Z" fill="#1E383E"></path><path d="M163.598 10.1539C162.981 8.78998 161.064 7.58148 159.145 7.58148C153.952 7.58148 152.158 12.1688 152.158 15.454C152.158 18.4604 153.765 23.2648 159.022 23.2648C161 23.2648 163.104 22.0859 163.692 20.6308V22.8924H166.351V0L163.601 1.10985V10.1539H163.598ZM159.423 21.0649C156.178 21.0649 154.941 17.7797 154.941 15.4244C154.941 12.667 156.363 9.78391 159.546 9.78391C161.03 9.78391 163.657 10.8987 163.657 15.4565C163.657 20.0142 161.03 21.0673 159.421 21.0673L159.423 21.0649Z" fill="#1E383E"></path></svg> 